P3
64 64
255
0 -1 -2 -3 -4 -5 -6 -7 -8 -9 -10 -11 -12 -13 -14 -15 -16 -17 -18 -19 -20 -21 -22 -23 -24 -25 -26 -27 -28 -29 -30 -31 -32 -33 -34 -35 -36 -37 -38 -39 -40 -41 -42 -43 -44 -45 -46 -47 -48 -49 -50 -51 -52 -53 -54 -55 -56 -57 -58 -59 -60 -61 -62 -63 -64 -65 -66 -67 -68 -69 -70 -71 -72 -73 -74 -75 -76 -77 -78 -79 -80 -81 -82 -83 -84 -85 -86 -87 -88 -89 -90 -91 -92 -93 -94 -95 -96 -97 -98 -99 -100 -101 -102 -103 -104 -105 -106 -107 -108 -109 -110 -111 -112 -113 -114 -115 -116 -117 -118 -119 -120 -121 -122 -123 -124 -125 -126 -127 -128 127 126 125 124 123 122 121 120 119 118 117 116 115 114 113 112 111 110 109 108 107 106 105 104 103 102 101 100 99 98 97 96 95 94 93 92 91 90 89 88 87 86 85 84 83 82 81 80 79 78 77 76 75 74 73 72 71 70 69 68 67 66 65 
0 0 0 0 0 0 0 0 0 0 0 0 0 0 0 0 0 0 0 0 0 0 0 0 0 0 0 0 0 0 0 0 0 0 0 0 0 0 0 0 0 0 0 0 0 0 0 0 0 0 0 0 0 0 0 0 0 0 0 0 0 0 0 0 0 0 0 0 0 0 0 0 0 0 0 0 0 0 0 0 0 0 0 0 0 0 0 0 0 0 0 0 0 0 0 0 0 0 0 0 0 0 0 0 0 0 0 0 0 0 0 0 0 0 0 0 0 0 0 0 0 0 0 0 0 0 0 0 0 0 0 0 0 0 0 0 0 0 0 0 0 0 0 0 0 0 0 0 0 0 0 0 0 0 0 0 0 0 0 0 0 0 0 0 0 0 0 0 0 0 0 0 0 0 0 0 0 0 0 0 0 0 0 0 0 0 0 0 0 0 0 0 
0 1 2 3 4 5 6 7 8 9 10 11 12 13 14 15 16 17 18 19 20 21 22 23 24 25 26 27 28 29 30 31 32 33 34 35 36 37 38 39 40 41 42 43 44 45 46 47 48 49 50 51 52 53 54 55 56 57 58 59 60 61 62 63 64 65 66 67 68 69 70 71 72 73 74 75 76 77 78 79 80 81 82 83 84 85 86 87 88 89 90 91 92 93 94 95 96 97 98 99 100 101 102 103 104 105 106 107 108 109 110 111 112 113 114 115 116 117 118 119 120 121 122 123 124 125 126 127 -128 -127 -126 -125 -124 -123 -122 -121 -120 -119 -118 -117 -116 -115 -114 -113 -112 -111 -110 -109 -108 -107 -106 -105 -104 -103 -102 -101 -100 -99 -98 -97 -96 -95 -94 -93 -92 -91 -90 -89 -88 -87 -86 -85 -84 -83 -82 -81 -80 -79 -78 -77 -76 -75 -74 -73 -72 -71 -70 -69 -68 -67 -66 -65 
0 2 4 6 8 10 12 14 16 18 20 22 24 26 28 30 32 34 36 38 40 42 44 46 48 50 52 54 56 58 60 62 64 66 68 70 72 74 76 78 80 82 84 86 88 90 92 94 96 98 100 102 104 106 108 110 112 114 116 118 120 122 124 126 -128 -126 -124 -122 -120 -118 -116 -114 -112 -110 -108 -106 -104 -102 -100 -98 -96 -94 -92 -90 -88 -86 -84 -82 -80 -78 -76 -74 -72 -70 -68 -66 -64 -62 -60 -58 -56 -54 -52 -50 -48 -46 -44 -42 -40 -38 -36 -34 -32 -30 -28 -26 -24 -22 -20 -18 -16 -14 -12 -10 -8 -6 -4 -2 0 2 4 6 8 10 12 14 16 18 20 22 24 26 28 30 32 34 36 38 40 42 44 46 48 50 52 54 56 58 60 62 64 66 68 70 72 74 76 78 80 82 84 86 88 90 92 94 96 98 100 102 104 106 108 110 112 114 116 118 120 122 124 126 
0 3 6 9 12 15 18 21 24 27 30 33 36 39 42 45 48 51 54 57 60 63 66 69 72 75 78 81 84 87 90 93 96 99 102 105 108 111 114 117 120 123 126 -127 -124 -121 -118 -115 -112 -109 -106 -103 -100 -97 -94 -91 -88 -85 -82 -79 -76 -73 -70 -67 -64 -61 -58 -55 -52 -49 -46 -43 -40 -37 -34 -31 -28 -25 -22 -19 -16 -13 -10 -7 -4 -1 2 5 8 11 14 17 20 23 26 29 32 35 38 41 44 47 50 53 56 59 62 65 68 71 74 77 80 83 86 89 92 95 98 101 104 107 110 113 116 119 122 125 -128 -125 -122 -119 -116 -113 -110 -107 -104 -101 -98 -95 -92 -89 -86 -83 -80 -77 -74 -71 -68 -65 -62 -59 -56 -53 -50 -47 -44 -41 -38 -35 -32 -29 -26 -23 -20 -17 -14 -11 -8 -5 -2 1 4 7 10 13 16 19 22 25 28 31 34 37 40 43 46 49 52 55 58 61 
0 4 8 12 16 20 24 28 32 36 40 44 48 52 56 60 64 68 72 76 80 84 88 92 96 100 104 108 112 116 120 124 -128 -124 -120 -116 -112 -108 -104 -100 -96 -92 -88 -84 -80 -76 -72 -68 -64 -60 -56 -52 -48 -44 -40 -36 -32 -28 -24 -20 -16 -12 -8 -4 0 4 8 12 16 20 24 28 32 36 40 44 48 52 56 60 64 68 72 76 80 84 88 92 96 100 104 108 112 116 120 124 -128 -124 -120 -116 -112 -108 -104 -100 -96 -92 -88 -84 -80 -76 -72 -68 -64 -60 -56 -52 -48 -44 -40 -36 -32 -28 -24 -20 -16 -12 -8 -4 0 4 8 12 16 20 24 28 32 36 40 44 48 52 56 60 64 68 72 76 80 84 88 92 96 100 104 108 112 116 120 124 -128 -124 -120 -116 -112 -108 -104 -100 -96 -92 -88 -84 -80 -76 -72 -68 -64 -60 -56 -52 -48 -44 -40 -36 -32 -28 -24 -20 -16 -12 -8 -4 
0 5 10 15 20 25 30 35 40 45 50 55 60 65 70 75 80 85 90 95 100 105 110 115 120 125 -126 -121 -116 -111 -106 -101 -96 -91 -86 -81 -76 -71 -66 -61 -56 -51 -46 -41 -36 -31 -26 -21 -16 -11 -6 -1 4 9 14 19 24 29 34 39 44 49 54 59 64 69 74 79 84 89 94 99 104 109 114 119 124 -127 -122 -117 -112 -107 -102 -97 -92 -87 -82 -77 -72 -67 -62 -57 -52 -47 -42 -37 -32 -27 -22 -17 -12 -7 -2 3 8 13 18 23 28 33 38 43 48 53 58 63 68 73 78 83 88 93 98 103 108 113 118 123 -128 -123 -118 -113 -108 -103 -98 -93 -88 -83 -78 -73 -68 -63 -58 -53 -48 -43 -38 -33 -28 -23 -18 -13 -8 -3 2 7 12 17 22 27 32 37 42 47 52 57 62 67 72 77 82 87 92 97 102 107 112 117 122 127 -124 -119 -114 -109 -104 -99 -94 -89 -84 -79 -74 -69 
0 6 12 18 24 30 36 42 48 54 60 66 72 78 84 90 96 102 108 114 120 126 -124 -118 -112 -106 -100 -94 -88 -82 -76 -70 -64 -58 -52 -46 -40 -34 -28 -22 -16 -10 -4 2 8 14 20 26 32 38 44 50 56 62 68 74 80 86 92 98 104 110 116 122 -128 -122 -116 -110 -104 -98 -92 -86 -80 -74 -68 -62 -56 -50 -44 -38 -32 -26 -20 -14 -8 -2 4 10 16 22 28 34 40 46 52 58 64 70 76 82 88 94 100 106 112 118 124 -126 -120 -114 -108 -102 -96 -90 -84 -78 -72 -66 -60 -54 -48 -42 -36 -30 -24 -18 -12 -6 0 6 12 18 24 30 36 42 48 54 60 66 72 78 84 90 96 102 108 114 120 126 -124 -118 -112 -106 -100 -94 -88 -82 -76 -70 -64 -58 -52 -46 -40 -34 -28 -22 -16 -10 -4 2 8 14 20 26 32 38 44 50 56 62 68 74 80 86 92 98 104 110 116 122 
0 7 14 21 28 35 42 49 56 63 70 77 84 91 98 105 112 119 126 -123 -116 -109 -102 -95 -88 -81 -74 -67 -60 -53 -46 -39 -32 -25 -18 -11 -4 3 10 17 24 31 38 45 52 59 66 73 80 87 94 101 108 115 122 -127 -120 -113 -106 -99 -92 -85 -78 -71 -64 -57 -50 -43 -36 -29 -22 -15 -8 -1 6 13 20 27 34 41 48 55 62 69 76 83 90 97 104 111 118 125 -124 -117 -110 -103 -96 -89 -82 -75 -68 -61 -54 -47 -40 -33 -26 -19 -12 -5 2 9 16 23 30 37 44 51 58 65 72 79 86 93 100 107 114 121 -128 -121 -114 -107 -100 -93 -86 -79 -72 -65 -58 -51 -44 -37 -30 -23 -16 -9 -2 5 12 19 26 33 40 47 54 61 68 75 82 89 96 103 110 117 124 -125 -118 -111 -104 -97 -90 -83 -76 -69 -62 -55 -48 -41 -34 -27 -20 -13 -6 1 8 15 22 29 36 43 50 57 
0 8 16 24 32 40 48 56 64 72 80 88 96 104 112 120 -128 -120 -112 -104 -96 -88 -80 -72 -64 -56 -48 -40 -32 -24 -16 -8 0 8 16 24 32 40 48 56 64 72 80 88 96 104 112 120 -128 -120 -112 -104 -96 -88 -80 -72 -64 -56 -48 -40 -32 -24 -16 -8 0 8 16 24 32 40 48 56 64 72 80 88 96 104 112 120 -128 -120 -112 -104 -96 -88 -80 -72 -64 -56 -48 -40 -32 -24 -16 -8 0 8 16 24 32 40 48 56 64 72 80 88 96 104 112 120 -128 -120 -112 -104 -96 -88 -80 -72 -64 -56 -48 -40 -32 -24 -16 -8 0 8 16 24 32 40 48 56 64 72 80 88 96 104 112 120 -128 -120 -112 -104 -96 -88 -80 -72 -64 -56 -48 -40 -32 -24 -16 -8 0 8 16 24 32 40 48 56 64 72 80 88 96 104 112 120 -128 -120 -112 -104 -96 -88 -80 -72 -64 -56 -48 -40 -32 -24 -16 -8 
0 9 18 27 36 45 54 63 72 81 90 99 108 117 126 -121 -112 -103 -94 -85 -76 -67 -58 -49 -40 -31 -22 -13 -4 5 14 23 32 41 50 59 68 77 86 95 104 113 122 -125 -116 -107 -98 -89 -80 -71 -62 -53 -44 -35 -26 -17 -8 1 10 19 28 37 46 55 64 73 82 91 100 109 118 127 -120 -111 -102 -93 -84 -75 -66 -57 -48 -39 -30 -21 -12 -3 6 15 24 33 42 51 60 69 78 87 96 105 114 123 -124 -115 -106 -97 -88 -79 -70 -61 -52 -43 -34 -25 -16 -7 2 11 20 29 38 47 56 65 74 83 92 101 110 119 -128 -119 -110 -101 -92 -83 -74 -65 -56 -47 -38 -29 -20 -11 -2 7 16 25 34 43 52 61 70 79 88 97 106 115 124 -123 -114 -105 -96 -87 -78 -69 -60 -51 -42 -33 -24 -15 -6 3 12 21 30 39 48 57 66 75 84 93 102 111 120 -127 -118 -109 -100 -91 -82 -73 
0 10 20 30 40 50 60 70 80 90 100 110 120 -126 -116 -106 -96 -86 -76 -66 -56 -46 -36 -26 -16 -6 4 14 24 34 44 54 64 74 84 94 104 114 124 -122 -112 -102 -92 -82 -72 -62 -52 -42 -32 -22 -12 -2 8 18 28 38 48 58 68 78 88 98 108 118 -128 -118 -108 -98 -88 -78 -68 -58 -48 -38 -28 -18 -8 2 12 22 32 42 52 62 72 82 92 102 112 122 -124 -114 -104 -94 -84 -74 -64 -54 -44 -34 -24 -14 -4 6 16 26 36 46 56 66 76 86 96 106 116 126 -120 -110 -100 -90 -80 -70 -60 -50 -40 -30 -20 -10 0 10 20 30 40 50 60 70 80 90 100 110 120 -126 -116 -106 -96 -86 -76 -66 -56 -46 -36 -26 -16 -6 4 14 24 34 44 54 64 74 84 94 104 114 124 -122 -112 -102 -92 -82 -72 -62 -52 -42 -32 -22 -12 -2 8 18 28 38 48 58 68 78 88 98 108 118 
0 11 22 33 44 55 66 77 88 99 110 121 -124 -113 -102 -91 -80 -69 -58 -47 -36 -25 -14 -3 8 19 30 41 52 63 74 85 96 107 118 -127 -116 -105 -94 -83 -72 -61 -50 -39 -28 -17 -6 5 16 27 38 49 60 71 82 93 104 115 126 -119 -108 -97 -86 -75 -64 -53 -42 -31 -20 -9 2 13 24 35 46 57 68 79 90 101 112 123 -122 -111 -100 -89 -78 -67 -56 -45 -34 -23 -12 -1 10 21 32 43 54 65 76 87 98 109 120 -125 -114 -103 -92 -81 -70 -59 -48 -37 -26 -15 -4 7 18 29 40 51 62 73 84 95 106 117 -128 -117 -106 -95 -84 -73 -62 -51 -40 -29 -18 -7 4 15 26 37 48 59 70 81 92 103 114 125 -120 -109 -98 -87 -76 -65 -54 -43 -32 -21 -10 1 12 23 34 45 56 67 78 89 100 111 122 -123 -112 -101 -90 -79 -68 -57 -46 -35 -24 -13 -2 9 20 31 42 53 
0 12 24 36 48 60 72 84 96 108 120 -124 -112 -100 -88 -76 -64 -52 -40 -28 -16 -4 8 20 32 44 56 68 80 92 104 116 -128 -116 -104 -92 -80 -68 -56 -44 -32 -20 -8 4 16 28 40 52 64 76 88 100 112 124 -120 -108 -96 -84 -72 -60 -48 -36 -24 -12 0 12 24 36 48 60 72 84 96 108 120 -124 -112 -100 -88 -76 -64 -52 -40 -28 -16 -4 8 20 32 44 56 68 80 92 104 116 -128 -116 -104 -92 -80 -68 -56 -44 -32 -20 -8 4 16 28 40 52 64 76 88 100 112 124 -120 -108 -96 -84 -72 -60 -48 -36 -24 -12 0 12 24 36 48 60 72 84 96 108 120 -124 -112 -100 -88 -76 -64 -52 -40 -28 -16 -4 8 20 32 44 56 68 80 92 104 116 -128 -116 -104 -92 -80 -68 -56 -44 -32 -20 -8 4 16 28 40 52 64 76 88 100 112 124 -120 -108 -96 -84 -72 -60 -48 -36 -24 -12 
0 13 26 39 52 65 78 91 104 117 -126 -113 -100 -87 -74 -61 -48 -35 -22 -9 4 17 30 43 56 69 82 95 108 121 -122 -109 -96 -83 -70 -57 -44 -31 -18 -5 8 21 34 47 60 73 86 99 112 125 -118 -105 -92 -79 -66 -53 -40 -27 -14 -1 12 25 38 51 64 77 90 103 116 -127 -114 -101 -88 -75 -62 -49 -36 -23 -10 3 16 29 42 55 68 81 94 107 120 -123 -110 -97 -84 -71 -58 -45 -32 -19 -6 7 20 33 46 59 72 85 98 111 124 -119 -106 -93 -80 -67 -54 -41 -28 -15 -2 11 24 37 50 63 76 89 102 115 -128 -115 -102 -89 -76 -63 -50 -37 -24 -11 2 15 28 41 54 67 80 93 106 119 -124 -111 -98 -85 -72 -59 -46 -33 -20 -7 6 19 32 45 58 71 84 97 110 123 -120 -107 -94 -81 -68 -55 -42 -29 -16 -3 10 23 36 49 62 75 88 101 114 127 -116 -103 -90 -77 
0 14 28 42 56 70 84 98 112 126 -116 -102 -88 -74 -60 -46 -32 -18 -4 10 24 38 52 66 80 94 108 122 -120 -106 -92 -78 -64 -50 -36 -22 -8 6 20 34 48 62 76 90 104 118 -124 -110 -96 -82 -68 -54 -40 -26 -12 2 16 30 44 58 72 86 100 114 -128 -114 -100 -86 -72 -58 -44 -30 -16 -2 12 26 40 54 68 82 96 110 124 -118 -104 -90 -76 -62 -48 -34 -20 -6 8 22 36 50 64 78 92 106 120 -122 -108 -94 -80 -66 -52 -38 -24 -10 4 18 32 46 60 74 88 102 116 -126 -112 -98 -84 -70 -56 -42 -28 -14 0 14 28 42 56 70 84 98 112 126 -116 -102 -88 -74 -60 -46 -32 -18 -4 10 24 38 52 66 80 94 108 122 -120 -106 -92 -78 -64 -50 -36 -22 -8 6 20 34 48 62 76 90 104 118 -124 -110 -96 -82 -68 -54 -40 -26 -12 2 16 30 44 58 72 86 100 114 
0 15 30 45 60 75 90 105 120 -121 -106 -91 -76 -61 -46 -31 -16 -1 14 29 44 59 74 89 104 119 -122 -107 -92 -77 -62 -47 -32 -17 -2 13 28 43 58 73 88 103 118 -123 -108 -93 -78 -63 -48 -33 -18 -3 12 27 42 57 72 87 102 117 -124 -109 -94 -79 -64 -49 -34 -19 -4 11 26 41 56 71 86 101 116 -125 -110 -95 -80 -65 -50 -35 -20 -5 10 25 40 55 70 85 100 115 -126 -111 -96 -81 -66 -51 -36 -21 -6 9 24 39 54 69 84 99 114 -127 -112 -97 -82 -67 -52 -37 -22 -7 8 23 38 53 68 83 98 113 -128 -113 -98 -83 -68 -53 -38 -23 -8 7 22 37 52 67 82 97 112 127 -114 -99 -84 -69 -54 -39 -24 -9 6 21 36 51 66 81 96 111 126 -115 -100 -85 -70 -55 -40 -25 -10 5 20 35 50 65 80 95 110 125 -116 -101 -86 -71 -56 -41 -26 -11 4 19 34 49 
0 16 32 48 64 80 96 112 -128 -112 -96 -80 -64 -48 -32 -16 0 16 32 48 64 80 96 112 -128 -112 -96 -80 -64 -48 -32 -16 0 16 32 48 64 80 96 112 -128 -112 -96 -80 -64 -48 -32 -16 0 16 32 48 64 80 96 112 -128 -112 -96 -80 -64 -48 -32 -16 0 16 32 48 64 80 96 112 -128 -112 -96 -80 -64 -48 -32 -16 0 16 32 48 64 80 96 112 -128 -112 -96 -80 -64 -48 -32 -16 0 16 32 48 64 80 96 112 -128 -112 -96 -80 -64 -48 -32 -16 0 16 32 48 64 80 96 112 -128 -112 -96 -80 -64 -48 -32 -16 0 16 32 48 64 80 96 112 -128 -112 -96 -80 -64 -48 -32 -16 0 16 32 48 64 80 96 112 -128 -112 -96 -80 -64 -48 -32 -16 0 16 32 48 64 80 96 112 -128 -112 -96 -80 -64 -48 -32 -16 0 16 32 48 64 80 96 112 -128 -112 -96 -80 -64 -48 -32 -16 
0 17 34 51 68 85 102 119 -120 -103 -86 -69 -52 -35 -18 -1 16 33 50 67 84 101 118 -121 -104 -87 -70 -53 -36 -19 -2 15 32 49 66 83 100 117 -122 -105 -88 -71 -54 -37 -20 -3 14 31 48 65 82 99 116 -123 -106 -89 -72 -55 -38 -21 -4 13 30 47 64 81 98 115 -124 -107 -90 -73 -56 -39 -22 -5 12 29 46 63 80 97 114 -125 -108 -91 -74 -57 -40 -23 -6 11 28 45 62 79 96 113 -126 -109 -92 -75 -58 -41 -24 -7 10 27 44 61 78 95 112 -127 -110 -93 -76 -59 -42 -25 -8 9 26 43 60 77 94 111 -128 -111 -94 -77 -60 -43 -26 -9 8 25 42 59 76 93 110 127 -112 -95 -78 -61 -44 -27 -10 7 24 41 58 75 92 109 126 -113 -96 -79 -62 -45 -28 -11 6 23 40 57 74 91 108 125 -114 -97 -80 -63 -46 -29 -12 5 22 39 56 73 90 107 124 -115 -98 -81 
0 18 36 54 72 90 108 126 -112 -94 -76 -58 -40 -22 -4 14 32 50 68 86 104 122 -116 -98 -80 -62 -44 -26 -8 10 28 46 64 82 100 118 -120 -102 -84 -66 -48 -30 -12 6 24 42 60 78 96 114 -124 -106 -88 -70 -52 -34 -16 2 20 38 56 74 92 110 -128 -110 -92 -74 -56 -38 -20 -2 16 34 52 70 88 106 124 -114 -96 -78 -60 -42 -24 -6 12 30 48 66 84 102 120 -118 -100 -82 -64 -46 -28 -10 8 26 44 62 80 98 116 -122 -104 -86 -68 -50 -32 -14 4 22 40 58 76 94 112 -126 -108 -90 -72 -54 -36 -18 0 18 36 54 72 90 108 126 -112 -94 -76 -58 -40 -22 -4 14 32 50 68 86 104 122 -116 -98 -80 -62 -44 -26 -8 10 28 46 64 82 100 118 -120 -102 -84 -66 -48 -30 -12 6 24 42 60 78 96 114 -124 -106 -88 -70 -52 -34 -16 2 20 38 56 74 92 110 
0 19 38 57 76 95 114 -123 -104 -85 -66 -47 -28 -9 10 29 48 67 86 105 124 -113 -94 -75 -56 -37 -18 1 20 39 58 77 96 115 -122 -103 -84 -65 -46 -27 -8 11 30 49 68 87 106 125 -112 -93 -74 -55 -36 -17 2 21 40 59 78 97 116 -121 -102 -83 -64 -45 -26 -7 12 31 50 69 88 107 126 -111 -92 -73 -54 -35 -16 3 22 41 60 79 98 117 -120 -101 -82 -63 -44 -25 -6 13 32 51 70 89 108 127 -110 -91 -72 -53 -34 -15 4 23 42 61 80 99 118 -119 -100 -81 -62 -43 -24 -5 14 33 52 71 90 109 -128 -109 -90 -71 -52 -33 -14 5 24 43 62 81 100 119 -118 -99 -80 -61 -42 -23 -4 15 34 53 72 91 110 -127 -108 -89 -70 -51 -32 -13 6 25 44 63 82 101 120 -117 -98 -79 -60 -41 -22 -3 16 35 54 73 92 111 -126 -107 -88 -69 -50 -31 -12 7 26 45 
0 20 40 60 80 100 120 -116 -96 -76 -56 -36 -16 4 24 44 64 84 104 124 -112 -92 -72 -52 -32 -12 8 28 48 68 88 108 -128 -108 -88 -68 -48 -28 -8 12 32 52 72 92 112 -124 -104 -84 -64 -44 -24 -4 16 36 56 76 96 116 -120 -100 -80 -60 -40 -20 0 20 40 60 80 100 120 -116 -96 -76 -56 -36 -16 4 24 44 64 84 104 124 -112 -92 -72 -52 -32 -12 8 28 48 68 88 108 -128 -108 -88 -68 -48 -28 -8 12 32 52 72 92 112 -124 -104 -84 -64 -44 -24 -4 16 36 56 76 96 116 -120 -100 -80 -60 -40 -20 0 20 40 60 80 100 120 -116 -96 -76 -56 -36 -16 4 24 44 64 84 104 124 -112 -92 -72 -52 -32 -12 8 28 48 68 88 108 -128 -108 -88 -68 -48 -28 -8 12 32 52 72 92 112 -124 -104 -84 -64 -44 -24 -4 16 36 56 76 96 116 -120 -100 -80 -60 -40 -20 
0 21 42 63 84 105 126 -109 -88 -67 -46 -25 -4 17 38 59 80 101 122 -113 -92 -71 -50 -29 -8 13 34 55 76 97 118 -117 -96 -75 -54 -33 -12 9 30 51 72 93 114 -121 -100 -79 -58 -37 -16 5 26 47 68 89 110 -125 -104 -83 -62 -41 -20 1 22 43 64 85 106 127 -108 -87 -66 -45 -24 -3 18 39 60 81 102 123 -112 -91 -70 -49 -28 -7 14 35 56 77 98 119 -116 -95 -74 -53 -32 -11 10 31 52 73 94 115 -120 -99 -78 -57 -36 -15 6 27 48 69 90 111 -124 -103 -82 -61 -40 -19 2 23 44 65 86 107 -128 -107 -86 -65 -44 -23 -2 19 40 61 82 103 124 -111 -90 -69 -48 -27 -6 15 36 57 78 99 120 -115 -94 -73 -52 -31 -10 11 32 53 74 95 116 -119 -98 -77 -56 -35 -14 7 28 49 70 91 112 -123 -102 -81 -60 -39 -18 3 24 45 66 87 108 -127 -106 -85 
0 22 44 66 88 110 -124 -102 -80 -58 -36 -14 8 30 52 74 96 118 -116 -94 -72 -50 -28 -6 16 38 60 82 104 126 -108 -86 -64 -42 -20 2 24 46 68 90 112 -122 -100 -78 -56 -34 -12 10 32 54 76 98 120 -114 -92 -70 -48 -26 -4 18 40 62 84 106 -128 -106 -84 -62 -40 -18 4 26 48 70 92 114 -120 -98 -76 -54 -32 -10 12 34 56 78 100 122 -112 -90 -68 -46 -24 -2 20 42 64 86 108 -126 -104 -82 -60 -38 -16 6 28 50 72 94 116 -118 -96 -74 -52 -30 -8 14 36 58 80 102 124 -110 -88 -66 -44 -22 0 22 44 66 88 110 -124 -102 -80 -58 -36 -14 8 30 52 74 96 118 -116 -94 -72 -50 -28 -6 16 38 60 82 104 126 -108 -86 -64 -42 -20 2 24 46 68 90 112 -122 -100 -78 -56 -34 -12 10 32 54 76 98 120 -114 -92 -70 -48 -26 -4 18 40 62 84 106 
0 23 46 69 92 115 -118 -95 -72 -49 -26 -3 20 43 66 89 112 -121 -98 -75 -52 -29 -6 17 40 63 86 109 -124 -101 -78 -55 -32 -9 14 37 60 83 106 -127 -104 -81 -58 -35 -12 11 34 57 80 103 126 -107 -84 -61 -38 -15 8 31 54 77 100 123 -110 -87 -64 -41 -18 5 28 51 74 97 120 -113 -90 -67 -44 -21 2 25 48 71 94 117 -116 -93 -70 -47 -24 -1 22 45 68 91 114 -119 -96 -73 -50 -27 -4 19 42 65 88 111 -122 -99 -76 -53 -30 -7 16 39 62 85 108 -125 -102 -79 -56 -33 -10 13 36 59 82 105 -128 -105 -82 -59 -36 -13 10 33 56 79 102 125 -108 -85 -62 -39 -16 7 30 53 76 99 122 -111 -88 -65 -42 -19 4 27 50 73 96 119 -114 -91 -68 -45 -22 1 24 47 70 93 116 -117 -94 -71 -48 -25 -2 21 44 67 90 113 -120 -97 -74 -51 -28 -5 18 41 
0 24 48 72 96 120 -112 -88 -64 -40 -16 8 32 56 80 104 -128 -104 -80 -56 -32 -8 16 40 64 88 112 -120 -96 -72 -48 -24 0 24 48 72 96 120 -112 -88 -64 -40 -16 8 32 56 80 104 -128 -104 -80 -56 -32 -8 16 40 64 88 112 -120 -96 -72 -48 -24 0 24 48 72 96 120 -112 -88 -64 -40 -16 8 32 56 80 104 -128 -104 -80 -56 -32 -8 16 40 64 88 112 -120 -96 -72 -48 -24 0 24 48 72 96 120 -112 -88 -64 -40 -16 8 32 56 80 104 -128 -104 -80 -56 -32 -8 16 40 64 88 112 -120 -96 -72 -48 -24 0 24 48 72 96 120 -112 -88 -64 -40 -16 8 32 56 80 104 -128 -104 -80 -56 -32 -8 16 40 64 88 112 -120 -96 -72 -48 -24 0 24 48 72 96 120 -112 -88 -64 -40 -16 8 32 56 80 104 -128 -104 -80 -56 -32 -8 16 40 64 88 112 -120 -96 -72 -48 -24 
0 25 50 75 100 125 -106 -81 -56 -31 -6 19 44 69 94 119 -112 -87 -62 -37 -12 13 38 63 88 113 -118 -93 -68 -43 -18 7 32 57 82 107 -124 -99 -74 -49 -24 1 26 51 76 101 126 -105 -80 -55 -30 -5 20 45 70 95 120 -111 -86 -61 -36 -11 14 39 64 89 114 -117 -92 -67 -42 -17 8 33 58 83 108 -123 -98 -73 -48 -23 2 27 52 77 102 127 -104 -79 -54 -29 -4 21 46 71 96 121 -110 -85 -60 -35 -10 15 40 65 90 115 -116 -91 -66 -41 -16 9 34 59 84 109 -122 -97 -72 -47 -22 3 28 53 78 103 -128 -103 -78 -53 -28 -3 22 47 72 97 122 -109 -84 -59 -34 -9 16 41 66 91 116 -115 -90 -65 -40 -15 10 35 60 85 110 -121 -96 -71 -46 -21 4 29 54 79 104 -127 -102 -77 -52 -27 -2 23 48 73 98 123 -108 -83 -58 -33 -8 17 42 67 92 117 -114 -89 
0 26 52 78 104 -126 -100 -74 -48 -22 4 30 56 82 108 -122 -96 -70 -44 -18 8 34 60 86 112 -118 -92 -66 -40 -14 12 38 64 90 116 -114 -88 -62 -36 -10 16 42 68 94 120 -110 -84 -58 -32 -6 20 46 72 98 124 -106 -80 -54 -28 -2 24 50 76 102 -128 -102 -76 -50 -24 2 28 54 80 106 -124 -98 -72 -46 -20 6 32 58 84 110 -120 -94 -68 -42 -16 10 36 62 88 114 -116 -90 -64 -38 -12 14 40 66 92 118 -112 -86 -60 -34 -8 18 44 70 96 122 -108 -82 -56 -30 -4 22 48 74 100 126 -104 -78 -52 -26 0 26 52 78 104 -126 -100 -74 -48 -22 4 30 56 82 108 -122 -96 -70 -44 -18 8 34 60 86 112 -118 -92 -66 -40 -14 12 38 64 90 116 -114 -88 -62 -36 -10 16 42 68 94 120 -110 -84 -58 -32 -6 20 46 72 98 124 -106 -80 -54 -28 -2 24 50 76 102 
0 27 54 81 108 -121 -94 -67 -40 -13 14 41 68 95 122 -107 -80 -53 -26 1 28 55 82 109 -120 -93 -66 -39 -12 15 42 69 96 123 -106 -79 -52 -25 2 29 56 83 110 -119 -92 -65 -38 -11 16 43 70 97 124 -105 -78 -51 -24 3 30 57 84 111 -118 -91 -64 -37 -10 17 44 71 98 125 -104 -77 -50 -23 4 31 58 85 112 -117 -90 -63 -36 -9 18 45 72 99 126 -103 -76 -49 -22 5 32 59 86 113 -116 -89 -62 -35 -8 19 46 73 100 127 -102 -75 -48 -21 6 33 60 87 114 -115 -88 -61 -34 -7 20 47 74 101 -128 -101 -74 -47 -20 7 34 61 88 115 -114 -87 -60 -33 -6 21 48 75 102 -127 -100 -73 -46 -19 8 35 62 89 116 -113 -86 -59 -32 -5 22 49 76 103 -126 -99 -72 -45 -18 9 36 63 90 117 -112 -85 -58 -31 -4 23 50 77 104 -125 -98 -71 -44 -17 10 37 
0 28 56 84 112 -116 -88 -60 -32 -4 24 52 80 108 -120 -92 -64 -36 -8 20 48 76 104 -124 -96 -68 -40 -12 16 44 72 100 -128 -100 -72 -44 -16 12 40 68 96 124 -104 -76 -48 -20 8 36 64 92 120 -108 -80 -52 -24 4 32 60 88 116 -112 -84 -56 -28 0 28 56 84 112 -116 -88 -60 -32 -4 24 52 80 108 -120 -92 -64 -36 -8 20 48 76 104 -124 -96 -68 -40 -12 16 44 72 100 -128 -100 -72 -44 -16 12 40 68 96 124 -104 -76 -48 -20 8 36 64 92 120 -108 -80 -52 -24 4 32 60 88 116 -112 -84 -56 -28 0 28 56 84 112 -116 -88 -60 -32 -4 24 52 80 108 -120 -92 -64 -36 -8 20 48 76 104 -124 -96 -68 -40 -12 16 44 72 100 -128 -100 -72 -44 -16 12 40 68 96 124 -104 -76 -48 -20 8 36 64 92 120 -108 -80 -52 -24 4 32 60 88 116 -112 -84 -56 -28 
0 29 58 87 116 -111 -82 -53 -24 5 34 63 92 121 -106 -77 -48 -19 10 39 68 97 126 -101 -72 -43 -14 15 44 73 102 -125 -96 -67 -38 -9 20 49 78 107 -120 -91 -62 -33 -4 25 54 83 112 -115 -86 -57 -28 1 30 59 88 117 -110 -81 -52 -23 6 35 64 93 122 -105 -76 -47 -18 11 40 69 98 127 -100 -71 -42 -13 16 45 74 103 -124 -95 -66 -37 -8 21 50 79 108 -119 -90 -61 -32 -3 26 55 84 113 -114 -85 -56 -27 2 31 60 89 118 -109 -80 -51 -22 7 36 65 94 123 -104 -75 -46 -17 12 41 70 99 -128 -99 -70 -41 -12 17 46 75 104 -123 -94 -65 -36 -7 22 51 80 109 -118 -89 -60 -31 -2 27 56 85 114 -113 -84 -55 -26 3 32 61 90 119 -108 -79 -50 -21 8 37 66 95 124 -103 -74 -45 -16 13 42 71 100 -127 -98 -69 -40 -11 18 47 76 105 -122 -93 
0 30 60 90 120 -106 -76 -46 -16 14 44 74 104 -122 -92 -62 -32 -2 28 58 88 118 -108 -78 -48 -18 12 42 72 102 -124 -94 -64 -34 -4 26 56 86 116 -110 -80 -50 -20 10 40 70 100 -126 -96 -66 -36 -6 24 54 84 114 -112 -82 -52 -22 8 38 68 98 -128 -98 -68 -38 -8 22 52 82 112 -114 -84 -54 -24 6 36 66 96 126 -100 -70 -40 -10 20 50 80 110 -116 -86 -56 -26 4 34 64 94 124 -102 -72 -42 -12 18 48 78 108 -118 -88 -58 -28 2 32 62 92 122 -104 -74 -44 -14 16 46 76 106 -120 -90 -60 -30 0 30 60 90 120 -106 -76 -46 -16 14 44 74 104 -122 -92 -62 -32 -2 28 58 88 118 -108 -78 -48 -18 12 42 72 102 -124 -94 -64 -34 -4 26 56 86 116 -110 -80 -50 -20 10 40 70 100 -126 -96 -66 -36 -6 24 54 84 114 -112 -82 -52 -22 8 38 68 98 
0 31 62 93 124 -101 -70 -39 -8 23 54 85 116 -109 -78 -47 -16 15 46 77 108 -117 -86 -55 -24 7 38 69 100 -125 -94 -63 -32 -1 30 61 92 123 -102 -71 -40 -9 22 53 84 115 -110 -79 -48 -17 14 45 76 107 -118 -87 -56 -25 6 37 68 99 -126 -95 -64 -33 -2 29 60 91 122 -103 -72 -41 -10 21 52 83 114 -111 -80 -49 -18 13 44 75 106 -119 -88 -57 -26 5 36 67 98 -127 -96 -65 -34 -3 28 59 90 121 -104 -73 -42 -11 20 51 82 113 -112 -81 -50 -19 12 43 74 105 -120 -89 -58 -27 4 35 66 97 -128 -97 -66 -35 -4 27 58 89 120 -105 -74 -43 -12 19 50 81 112 -113 -82 -51 -20 11 42 73 104 -121 -90 -59 -28 3 34 65 96 127 -98 -67 -36 -5 26 57 88 119 -106 -75 -44 -13 18 49 80 111 -114 -83 -52 -21 10 41 72 103 -122 -91 -60 -29 2 33 
0 32 64 96 -128 -96 -64 -32 0 32 64 96 -128 -96 -64 -32 0 32 64 96 -128 -96 -64 -32 0 32 64 96 -128 -96 -64 -32 0 32 64 96 -128 -96 -64 -32 0 32 64 96 -128 -96 -64 -32 0 32 64 96 -128 -96 -64 -32 0 32 64 96 -128 -96 -64 -32 0 32 64 96 -128 -96 -64 -32 0 32 64 96 -128 -96 -64 -32 0 32 64 96 -128 -96 -64 -32 0 32 64 96 -128 -96 -64 -32 0 32 64 96 -128 -96 -64 -32 0 32 64 96 -128 -96 -64 -32 0 32 64 96 -128 -96 -64 -32 0 32 64 96 -128 -96 -64 -32 0 32 64 96 -128 -96 -64 -32 0 32 64 96 -128 -96 -64 -32 0 32 64 96 -128 -96 -64 -32 0 32 64 96 -128 -96 -64 -32 0 32 64 96 -128 -96 -64 -32 0 32 64 96 -128 -96 -64 -32 0 32 64 96 -128 -96 -64 -32 0 32 64 96 -128 -96 -64 -32 
0 33 66 99 -124 -91 -58 -25 8 41 74 107 -116 -83 -50 -17 16 49 82 115 -108 -75 -42 -9 24 57 90 123 -100 -67 -34 -1 32 65 98 -125 -92 -59 -26 7 40 73 106 -117 -84 -51 -18 15 48 81 114 -109 -76 -43 -10 23 56 89 122 -101 -68 -35 -2 31 64 97 -126 -93 -60 -27 6 39 72 105 -118 -85 -52 -19 14 47 80 113 -110 -77 -44 -11 22 55 88 121 -102 -69 -36 -3 30 63 96 -127 -94 -61 -28 5 38 71 104 -119 -86 -53 -20 13 46 79 112 -111 -78 -45 -12 21 54 87 120 -103 -70 -37 -4 29 62 95 -128 -95 -62 -29 4 37 70 103 -120 -87 -54 -21 12 45 78 111 -112 -79 -46 -13 20 53 86 119 -104 -71 -38 -5 28 61 94 127 -96 -63 -30 3 36 69 102 -121 -88 -55 -22 11 44 77 110 -113 -80 -47 -14 19 52 85 118 -105 -72 -39 -6 27 60 93 126 -97 
0 34 68 102 -120 -86 -52 -18 16 50 84 118 -104 -70 -36 -2 32 66 100 -122 -88 -54 -20 14 48 82 116 -106 -72 -38 -4 30 64 98 -124 -90 -56 -22 12 46 80 114 -108 -74 -40 -6 28 62 96 -126 -92 -58 -24 10 44 78 112 -110 -76 -42 -8 26 60 94 -128 -94 -60 -26 8 42 76 110 -112 -78 -44 -10 24 58 92 126 -96 -62 -28 6 40 74 108 -114 -80 -46 -12 22 56 90 124 -98 -64 -30 4 38 72 106 -116 -82 -48 -14 20 54 88 122 -100 -66 -32 2 36 70 104 -118 -84 -50 -16 18 52 86 120 -102 -68 -34 0 34 68 102 -120 -86 -52 -18 16 50 84 118 -104 -70 -36 -2 32 66 100 -122 -88 -54 -20 14 48 82 116 -106 -72 -38 -4 30 64 98 -124 -90 -56 -22 12 46 80 114 -108 -74 -40 -6 28 62 96 -126 -92 -58 -24 10 44 78 112 -110 -76 -42 -8 26 60 94 
0 35 70 105 -116 -81 -46 -11 24 59 94 -127 -92 -57 -22 13 48 83 118 -103 -68 -33 2 37 72 107 -114 -79 -44 -9 26 61 96 -125 -90 -55 -20 15 50 85 120 -101 -66 -31 4 39 74 109 -112 -77 -42 -7 28 63 98 -123 -88 -53 -18 17 52 87 122 -99 -64 -29 6 41 76 111 -110 -75 -40 -5 30 65 100 -121 -86 -51 -16 19 54 89 124 -97 -62 -27 8 43 78 113 -108 -73 -38 -3 32 67 102 -119 -84 -49 -14 21 56 91 126 -95 -60 -25 10 45 80 115 -106 -71 -36 -1 34 69 104 -117 -82 -47 -12 23 58 93 -128 -93 -58 -23 12 47 82 117 -104 -69 -34 1 36 71 106 -115 -80 -45 -10 25 60 95 -126 -91 -56 -21 14 49 84 119 -102 -67 -32 3 38 73 108 -113 -78 -43 -8 27 62 97 -124 -89 -54 -19 16 51 86 121 -100 -65 -30 5 40 75 110 -111 -76 -41 -6 29 
0 36 72 108 -112 -76 -40 -4 32 68 104 -116 -80 -44 -8 28 64 100 -120 -84 -48 -12 24 60 96 -124 -88 -52 -16 20 56 92 -128 -92 -56 -20 16 52 88 124 -96 -60 -24 12 48 84 120 -100 -64 -28 8 44 80 116 -104 -68 -32 4 40 76 112 -108 -72 -36 0 36 72 108 -112 -76 -40 -4 32 68 104 -116 -80 -44 -8 28 64 100 -120 -84 -48 -12 24 60 96 -124 -88 -52 -16 20 56 92 -128 -92 -56 -20 16 52 88 124 -96 -60 -24 12 48 84 120 -100 -64 -28 8 44 80 116 -104 -68 -32 4 40 76 112 -108 -72 -36 0 36 72 108 -112 -76 -40 -4 32 68 104 -116 -80 -44 -8 28 64 100 -120 -84 -48 -12 24 60 96 -124 -88 -52 -16 20 56 92 -128 -92 -56 -20 16 52 88 124 -96 -60 -24 12 48 84 120 -100 -64 -28 8 44 80 116 -104 -68 -32 4 40 76 112 -108 -72 -36 
0 37 74 111 -108 -71 -34 3 40 77 114 -105 -68 -31 6 43 80 117 -102 -65 -28 9 46 83 120 -99 -62 -25 12 49 86 123 -96 -59 -22 15 52 89 126 -93 -56 -19 18 55 92 -127 -90 -53 -16 21 58 95 -124 -87 -50 -13 24 61 98 -121 -84 -47 -10 27 64 101 -118 -81 -44 -7 30 67 104 -115 -78 -41 -4 33 70 107 -112 -75 -38 -1 36 73 110 -109 -72 -35 2 39 76 113 -106 -69 -32 5 42 79 116 -103 -66 -29 8 45 82 119 -100 -63 -26 11 48 85 122 -97 -60 -23 14 51 88 125 -94 -57 -20 17 54 91 -128 -91 -54 -17 20 57 94 -125 -88 -51 -14 23 60 97 -122 -85 -48 -11 26 63 100 -119 -82 -45 -8 29 66 103 -116 -79 -42 -5 32 69 106 -113 -76 -39 -2 35 72 109 -110 -73 -36 1 38 75 112 -107 -70 -33 4 41 78 115 -104 -67 -30 7 44 81 118 -101 
0 38 76 114 -104 -66 -28 10 48 86 124 -94 -56 -18 20 58 96 -122 -84 -46 -8 30 68 106 -112 -74 -36 2 40 78 116 -102 -64 -26 12 50 88 126 -92 -54 -16 22 60 98 -120 -82 -44 -6 32 70 108 -110 -72 -34 4 42 80 118 -100 -62 -24 14 52 90 -128 -90 -52 -14 24 62 100 -118 -80 -42 -4 34 72 110 -108 -70 -32 6 44 82 120 -98 -60 -22 16 54 92 -126 -88 -50 -12 26 64 102 -116 -78 -40 -2 36 74 112 -106 -68 -30 8 46 84 122 -96 -58 -20 18 56 94 -124 -86 -48 -10 28 66 104 -114 -76 -38 0 38 76 114 -104 -66 -28 10 48 86 124 -94 -56 -18 20 58 96 -122 -84 -46 -8 30 68 106 -112 -74 -36 2 40 78 116 -102 -64 -26 12 50 88 126 -92 -54 -16 22 60 98 -120 -82 -44 -6 32 70 108 -110 -72 -34 4 42 80 118 -100 -62 -24 14 52 90 
0 39 78 117 -100 -61 -22 17 56 95 -122 -83 -44 -5 34 73 112 -105 -66 -27 12 51 90 -127 -88 -49 -10 29 68 107 -110 -71 -32 7 46 85 124 -93 -54 -15 24 63 102 -115 -76 -37 2 41 80 119 -98 -59 -20 19 58 97 -120 -81 -42 -3 36 75 114 -103 -64 -25 14 53 92 -125 -86 -47 -8 31 70 109 -108 -69 -30 9 48 87 126 -91 -52 -13 26 65 104 -113 -74 -35 4 43 82 121 -96 -57 -18 21 60 99 -118 -79 -40 -1 38 77 116 -101 -62 -23 16 55 94 -123 -84 -45 -6 33 72 111 -106 -67 -28 11 50 89 -128 -89 -50 -11 28 67 106 -111 -72 -33 6 45 84 123 -94 -55 -16 23 62 101 -116 -77 -38 1 40 79 118 -99 -60 -21 18 57 96 -121 -82 -43 -4 35 74 113 -104 -65 -26 13 52 91 -126 -87 -48 -9 30 69 108 -109 -70 -31 8 47 86 125 -92 -53 -14 25 
0 40 80 120 -96 -56 -16 24 64 104 -112 -72 -32 8 48 88 -128 -88 -48 -8 32 72 112 -104 -64 -24 16 56 96 -120 -80 -40 0 40 80 120 -96 -56 -16 24 64 104 -112 -72 -32 8 48 88 -128 -88 -48 -8 32 72 112 -104 -64 -24 16 56 96 -120 -80 -40 0 40 80 120 -96 -56 -16 24 64 104 -112 -72 -32 8 48 88 -128 -88 -48 -8 32 72 112 -104 -64 -24 16 56 96 -120 -80 -40 0 40 80 120 -96 -56 -16 24 64 104 -112 -72 -32 8 48 88 -128 -88 -48 -8 32 72 112 -104 -64 -24 16 56 96 -120 -80 -40 0 40 80 120 -96 -56 -16 24 64 104 -112 -72 -32 8 48 88 -128 -88 -48 -8 32 72 112 -104 -64 -24 16 56 96 -120 -80 -40 0 40 80 120 -96 -56 -16 24 64 104 -112 -72 -32 8 48 88 -128 -88 -48 -8 32 72 112 -104 -64 -24 16 56 96 -120 -80 -40 
0 41 82 123 -92 -51 -10 31 72 113 -102 -61 -20 21 62 103 -112 -71 -30 11 52 93 -122 -81 -40 1 42 83 124 -91 -50 -9 32 73 114 -101 -60 -19 22 63 104 -111 -70 -29 12 53 94 -121 -80 -39 2 43 84 125 -90 -49 -8 33 74 115 -100 -59 -18 23 64 105 -110 -69 -28 13 54 95 -120 -79 -38 3 44 85 126 -89 -48 -7 34 75 116 -99 -58 -17 24 65 106 -109 -68 -27 14 55 96 -119 -78 -37 4 45 86 127 -88 -47 -6 35 76 117 -98 -57 -16 25 66 107 -108 -67 -26 15 56 97 -118 -77 -36 5 46 87 -128 -87 -46 -5 36 77 118 -97 -56 -15 26 67 108 -107 -66 -25 16 57 98 -117 -76 -35 6 47 88 -127 -86 -45 -4 37 78 119 -96 -55 -14 27 68 109 -106 -65 -24 17 58 99 -116 -75 -34 7 48 89 -126 -85 -44 -3 38 79 120 -95 -54 -13 28 69 110 -105 
0 42 84 126 -88 -46 -4 38 80 122 -92 -50 -8 34 76 118 -96 -54 -12 30 72 114 -100 -58 -16 26 68 110 -104 -62 -20 22 64 106 -108 -66 -24 18 60 102 -112 -70 -28 14 56 98 -116 -74 -32 10 52 94 -120 -78 -36 6 48 90 -124 -82 -40 2 44 86 -128 -86 -44 -2 40 82 124 -90 -48 -6 36 78 120 -94 -52 -10 32 74 116 -98 -56 -14 28 70 112 -102 -60 -18 24 66 108 -106 -64 -22 20 62 104 -110 -68 -26 16 58 100 -114 -72 -30 12 54 96 -118 -76 -34 8 50 92 -122 -80 -38 4 46 88 -126 -84 -42 0 42 84 126 -88 -46 -4 38 80 122 -92 -50 -8 34 76 118 -96 -54 -12 30 72 114 -100 -58 -16 26 68 110 -104 -62 -20 22 64 106 -108 -66 -24 18 60 102 -112 -70 -28 14 56 98 -116 -74 -32 10 52 94 -120 -78 -36 6 48 90 -124 -82 -40 2 44 86 
0 43 86 -127 -84 -41 2 45 88 -125 -82 -39 4 47 90 -123 -80 -37 6 49 92 -121 -78 -35 8 51 94 -119 -76 -33 10 53 96 -117 -74 -31 12 55 98 -115 -72 -29 14 57 100 -113 -70 -27 16 59 102 -111 -68 -25 18 61 104 -109 -66 -23 20 63 106 -107 -64 -21 22 65 108 -105 -62 -19 24 67 110 -103 -60 -17 26 69 112 -101 -58 -15 28 71 114 -99 -56 -13 30 73 116 -97 -54 -11 32 75 118 -95 -52 -9 34 77 120 -93 -50 -7 36 79 122 -91 -48 -5 38 81 124 -89 -46 -3 40 83 126 -87 -44 -1 42 85 -128 -85 -42 1 44 87 -126 -83 -40 3 46 89 -124 -81 -38 5 48 91 -122 -79 -36 7 50 93 -120 -77 -34 9 52 95 -118 -75 -32 11 54 97 -116 -73 -30 13 56 99 -114 -71 -28 15 58 101 -112 -69 -26 17 60 103 -110 -67 -24 19 62 105 -108 -65 -22 21 
0 44 88 -124 -80 -36 8 52 96 -116 -72 -28 16 60 104 -108 -64 -20 24 68 112 -100 -56 -12 32 76 120 -92 -48 -4 40 84 -128 -84 -40 4 48 92 -120 -76 -32 12 56 100 -112 -68 -24 20 64 108 -104 -60 -16 28 72 116 -96 -52 -8 36 80 124 -88 -44 0 44 88 -124 -80 -36 8 52 96 -116 -72 -28 16 60 104 -108 -64 -20 24 68 112 -100 -56 -12 32 76 120 -92 -48 -4 40 84 -128 -84 -40 4 48 92 -120 -76 -32 12 56 100 -112 -68 -24 20 64 108 -104 -60 -16 28 72 116 -96 -52 -8 36 80 124 -88 -44 0 44 88 -124 -80 -36 8 52 96 -116 -72 -28 16 60 104 -108 -64 -20 24 68 112 -100 -56 -12 32 76 120 -92 -48 -4 40 84 -128 -84 -40 4 48 92 -120 -76 -32 12 56 100 -112 -68 -24 20 64 108 -104 -60 -16 28 72 116 -96 -52 -8 36 80 124 -88 -44 
0 45 90 -121 -76 -31 14 59 104 -107 -62 -17 28 73 118 -93 -48 -3 42 87 -124 -79 -34 11 56 101 -110 -65 -20 25 70 115 -96 -51 -6 39 84 -127 -82 -37 8 53 98 -113 -68 -23 22 67 112 -99 -54 -9 36 81 126 -85 -40 5 50 95 -116 -71 -26 19 64 109 -102 -57 -12 33 78 123 -88 -43 2 47 92 -119 -74 -29 16 61 106 -105 -60 -15 30 75 120 -91 -46 -1 44 89 -122 -77 -32 13 58 103 -108 -63 -18 27 72 117 -94 -49 -4 41 86 -125 -80 -35 10 55 100 -111 -66 -21 24 69 114 -97 -52 -7 38 83 -128 -83 -38 7 52 97 -114 -69 -24 21 66 111 -100 -55 -10 35 80 125 -86 -41 4 49 94 -117 -72 -27 18 63 108 -103 -58 -13 32 77 122 -89 -44 1 46 91 -120 -75 -30 15 60 105 -106 -61 -16 29 74 119 -92 -47 -2 43 88 -123 -78 -33 12 57 102 -109 
0 46 92 -118 -72 -26 20 66 112 -98 -52 -6 40 86 -124 -78 -32 14 60 106 -104 -58 -12 34 80 126 -84 -38 8 54 100 -110 -64 -18 28 74 120 -90 -44 2 48 94 -116 -70 -24 22 68 114 -96 -50 -4 42 88 -122 -76 -30 16 62 108 -102 -56 -10 36 82 -128 -82 -36 10 56 102 -108 -62 -16 30 76 122 -88 -42 4 50 96 -114 -68 -22 24 70 116 -94 -48 -2 44 90 -120 -74 -28 18 64 110 -100 -54 -8 38 84 -126 -80 -34 12 58 104 -106 -60 -14 32 78 124 -86 -40 6 52 98 -112 -66 -20 26 72 118 -92 -46 0 46 92 -118 -72 -26 20 66 112 -98 -52 -6 40 86 -124 -78 -32 14 60 106 -104 -58 -12 34 80 126 -84 -38 8 54 100 -110 -64 -18 28 74 120 -90 -44 2 48 94 -116 -70 -24 22 68 114 -96 -50 -4 42 88 -122 -76 -30 16 62 108 -102 -56 -10 36 82 
0 47 94 -115 -68 -21 26 73 120 -89 -42 5 52 99 -110 -63 -16 31 78 125 -84 -37 10 57 104 -105 -58 -11 36 83 -126 -79 -32 15 62 109 -100 -53 -6 41 88 -121 -74 -27 20 67 114 -95 -48 -1 46 93 -116 -69 -22 25 72 119 -90 -43 4 51 98 -111 -64 -17 30 77 124 -85 -38 9 56 103 -106 -59 -12 35 82 -127 -80 -33 14 61 108 -101 -54 -7 40 87 -122 -75 -28 19 66 113 -96 -49 -2 45 92 -117 -70 -23 24 71 118 -91 -44 3 50 97 -112 -65 -18 29 76 123 -86 -39 8 55 102 -107 -60 -13 34 81 -128 -81 -34 13 60 107 -102 -55 -8 39 86 -123 -76 -29 18 65 112 -97 -50 -3 44 91 -118 -71 -24 23 70 117 -92 -45 2 49 96 -113 -66 -19 28 75 122 -87 -40 7 54 101 -108 -61 -14 33 80 127 -82 -35 12 59 106 -103 -56 -9 38 85 -124 -77 -30 17 
0 48 96 -112 -64 -16 32 80 -128 -80 -32 16 64 112 -96 -48 0 48 96 -112 -64 -16 32 80 -128 -80 -32 16 64 112 -96 -48 0 48 96 -112 -64 -16 32 80 -128 -80 -32 16 64 112 -96 -48 0 48 96 -112 -64 -16 32 80 -128 -80 -32 16 64 112 -96 -48 0 48 96 -112 -64 -16 32 80 -128 -80 -32 16 64 112 -96 -48 0 48 96 -112 -64 -16 32 80 -128 -80 -32 16 64 112 -96 -48 0 48 96 -112 -64 -16 32 80 -128 -80 -32 16 64 112 -96 -48 0 48 96 -112 -64 -16 32 80 -128 -80 -32 16 64 112 -96 -48 0 48 96 -112 -64 -16 32 80 -128 -80 -32 16 64 112 -96 -48 0 48 96 -112 -64 -16 32 80 -128 -80 -32 16 64 112 -96 -48 0 48 96 -112 -64 -16 32 80 -128 -80 -32 16 64 112 -96 -48 0 48 96 -112 -64 -16 32 80 -128 -80 -32 16 64 112 -96 -48 
0 49 98 -109 -60 -11 38 87 -120 -71 -22 27 76 125 -82 -33 16 65 114 -93 -44 5 54 103 -104 -55 -6 43 92 -115 -66 -17 32 81 -126 -77 -28 21 70 119 -88 -39 10 59 108 -99 -50 -1 48 97 -110 -61 -12 37 86 -121 -72 -23 26 75 124 -83 -34 15 64 113 -94 -45 4 53 102 -105 -56 -7 42 91 -116 -67 -18 31 80 -127 -78 -29 20 69 118 -89 -40 9 58 107 -100 -51 -2 47 96 -111 -62 -13 36 85 -122 -73 -24 25 74 123 -84 -35 14 63 112 -95 -46 3 52 101 -106 -57 -8 41 90 -117 -68 -19 30 79 -128 -79 -30 19 68 117 -90 -41 8 57 106 -101 -52 -3 46 95 -112 -63 -14 35 84 -123 -74 -25 24 73 122 -85 -36 13 62 111 -96 -47 2 51 100 -107 -58 -9 40 89 -118 -69 -20 29 78 127 -80 -31 18 67 116 -91 -42 7 56 105 -102 -53 -4 45 94 -113 
0 50 100 -106 -56 -6 44 94 -112 -62 -12 38 88 -118 -68 -18 32 82 -124 -74 -24 26 76 126 -80 -30 20 70 120 -86 -36 14 64 114 -92 -42 8 58 108 -98 -48 2 52 102 -104 -54 -4 46 96 -110 -60 -10 40 90 -116 -66 -16 34 84 -122 -72 -22 28 78 -128 -78 -28 22 72 122 -84 -34 16 66 116 -90 -40 10 60 110 -96 -46 4 54 104 -102 -52 -2 48 98 -108 -58 -8 42 92 -114 -64 -14 36 86 -120 -70 -20 30 80 -126 -76 -26 24 74 124 -82 -32 18 68 118 -88 -38 12 62 112 -94 -44 6 56 106 -100 -50 0 50 100 -106 -56 -6 44 94 -112 -62 -12 38 88 -118 -68 -18 32 82 -124 -74 -24 26 76 126 -80 -30 20 70 120 -86 -36 14 64 114 -92 -42 8 58 108 -98 -48 2 52 102 -104 -54 -4 46 96 -110 -60 -10 40 90 -116 -66 -16 34 84 -122 -72 -22 28 78 
0 51 102 -103 -52 -1 50 101 -104 -53 -2 49 100 -105 -54 -3 48 99 -106 -55 -4 47 98 -107 -56 -5 46 97 -108 -57 -6 45 96 -109 -58 -7 44 95 -110 -59 -8 43 94 -111 -60 -9 42 93 -112 -61 -10 41 92 -113 -62 -11 40 91 -114 -63 -12 39 90 -115 -64 -13 38 89 -116 -65 -14 37 88 -117 -66 -15 36 87 -118 -67 -16 35 86 -119 -68 -17 34 85 -120 -69 -18 33 84 -121 -70 -19 32 83 -122 -71 -20 31 82 -123 -72 -21 30 81 -124 -73 -22 29 80 -125 -74 -23 28 79 -126 -75 -24 27 78 -127 -76 -25 26 77 -128 -77 -26 25 76 127 -78 -27 24 75 126 -79 -28 23 74 125 -80 -29 22 73 124 -81 -30 21 72 123 -82 -31 20 71 122 -83 -32 19 70 121 -84 -33 18 69 120 -85 -34 17 68 119 -86 -35 16 67 118 -87 -36 15 66 117 -88 -37 14 65 116 -89 -38 13 
0 52 104 -100 -48 4 56 108 -96 -44 8 60 112 -92 -40 12 64 116 -88 -36 16 68 120 -84 -32 20 72 124 -80 -28 24 76 -128 -76 -24 28 80 -124 -72 -20 32 84 -120 -68 -16 36 88 -116 -64 -12 40 92 -112 -60 -8 44 96 -108 -56 -4 48 100 -104 -52 0 52 104 -100 -48 4 56 108 -96 -44 8 60 112 -92 -40 12 64 116 -88 -36 16 68 120 -84 -32 20 72 124 -80 -28 24 76 -128 -76 -24 28 80 -124 -72 -20 32 84 -120 -68 -16 36 88 -116 -64 -12 40 92 -112 -60 -8 44 96 -108 -56 -4 48 100 -104 -52 0 52 104 -100 -48 4 56 108 -96 -44 8 60 112 -92 -40 12 64 116 -88 -36 16 68 120 -84 -32 20 72 124 -80 -28 24 76 -128 -76 -24 28 80 -124 -72 -20 32 84 -120 -68 -16 36 88 -116 -64 -12 40 92 -112 -60 -8 44 96 -108 -56 -4 48 100 -104 -52 
0 53 106 -97 -44 9 62 115 -88 -35 18 71 124 -79 -26 27 80 -123 -70 -17 36 89 -114 -61 -8 45 98 -105 -52 1 54 107 -96 -43 10 63 116 -87 -34 19 72 125 -78 -25 28 81 -122 -69 -16 37 90 -113 -60 -7 46 99 -104 -51 2 55 108 -95 -42 11 64 117 -86 -33 20 73 126 -77 -24 29 82 -121 -68 -15 38 91 -112 -59 -6 47 100 -103 -50 3 56 109 -94 -41 12 65 118 -85 -32 21 74 127 -76 -23 30 83 -120 -67 -14 39 92 -111 -58 -5 48 101 -102 -49 4 57 110 -93 -40 13 66 119 -84 -31 22 75 -128 -75 -22 31 84 -119 -66 -13 40 93 -110 -57 -4 49 102 -101 -48 5 58 111 -92 -39 14 67 120 -83 -30 23 76 -127 -74 -21 32 85 -118 -65 -12 41 94 -109 -56 -3 50 103 -100 -47 6 59 112 -91 -38 15 68 121 -82 -29 24 77 -126 -73 -20 33 86 -117 
0 54 108 -94 -40 14 68 122 -80 -26 28 82 -120 -66 -12 42 96 -106 -52 2 56 110 -92 -38 16 70 124 -78 -24 30 84 -118 -64 -10 44 98 -104 -50 4 58 112 -90 -36 18 72 126 -76 -22 32 86 -116 -62 -8 46 100 -102 -48 6 60 114 -88 -34 20 74 -128 -74 -20 34 88 -114 -60 -6 48 102 -100 -46 8 62 116 -86 -32 22 76 -126 -72 -18 36 90 -112 -58 -4 50 104 -98 -44 10 64 118 -84 -30 24 78 -124 -70 -16 38 92 -110 -56 -2 52 106 -96 -42 12 66 120 -82 -28 26 80 -122 -68 -14 40 94 -108 -54 0 54 108 -94 -40 14 68 122 -80 -26 28 82 -120 -66 -12 42 96 -106 -52 2 56 110 -92 -38 16 70 124 -78 -24 30 84 -118 -64 -10 44 98 -104 -50 4 58 112 -90 -36 18 72 126 -76 -22 32 86 -116 -62 -8 46 100 -102 -48 6 60 114 -88 -34 20 74 
0 55 110 -91 -36 19 74 -127 -72 -17 38 93 -108 -53 2 57 112 -89 -34 21 76 -125 -70 -15 40 95 -106 -51 4 59 114 -87 -32 23 78 -123 -68 -13 42 97 -104 -49 6 61 116 -85 -30 25 80 -121 -66 -11 44 99 -102 -47 8 63 118 -83 -28 27 82 -119 -64 -9 46 101 -100 -45 10 65 120 -81 -26 29 84 -117 -62 -7 48 103 -98 -43 12 67 122 -79 -24 31 86 -115 -60 -5 50 105 -96 -41 14 69 124 -77 -22 33 88 -113 -58 -3 52 107 -94 -39 16 71 126 -75 -20 35 90 -111 -56 -1 54 109 -92 -37 18 73 -128 -73 -18 37 92 -109 -54 1 56 111 -90 -35 20 75 -126 -71 -16 39 94 -107 -52 3 58 113 -88 -33 22 77 -124 -69 -14 41 96 -105 -50 5 60 115 -86 -31 24 79 -122 -67 -12 43 98 -103 -48 7 62 117 -84 -29 26 81 -120 -65 -10 45 100 -101 -46 9 
0 56 112 -88 -32 24 80 -120 -64 -8 48 104 -96 -40 16 72 -128 -72 -16 40 96 -104 -48 8 64 120 -80 -24 32 88 -112 -56 0 56 112 -88 -32 24 80 -120 -64 -8 48 104 -96 -40 16 72 -128 -72 -16 40 96 -104 -48 8 64 120 -80 -24 32 88 -112 -56 0 56 112 -88 -32 24 80 -120 -64 -8 48 104 -96 -40 16 72 -128 -72 -16 40 96 -104 -48 8 64 120 -80 -24 32 88 -112 -56 0 56 112 -88 -32 24 80 -120 -64 -8 48 104 -96 -40 16 72 -128 -72 -16 40 96 -104 -48 8 64 120 -80 -24 32 88 -112 -56 0 56 112 -88 -32 24 80 -120 -64 -8 48 104 -96 -40 16 72 -128 -72 -16 40 96 -104 -48 8 64 120 -80 -24 32 88 -112 -56 0 56 112 -88 -32 24 80 -120 -64 -8 48 104 -96 -40 16 72 -128 -72 -16 40 96 -104 -48 8 64 120 -80 -24 32 88 -112 -56 
0 57 114 -85 -28 29 86 -113 -56 1 58 115 -84 -27 30 87 -112 -55 2 59 116 -83 -26 31 88 -111 -54 3 60 117 -82 -25 32 89 -110 -53 4 61 118 -81 -24 33 90 -109 -52 5 62 119 -80 -23 34 91 -108 -51 6 63 120 -79 -22 35 92 -107 -50 7 64 121 -78 -21 36 93 -106 -49 8 65 122 -77 -20 37 94 -105 -48 9 66 123 -76 -19 38 95 -104 -47 10 67 124 -75 -18 39 96 -103 -46 11 68 125 -74 -17 40 97 -102 -45 12 69 126 -73 -16 41 98 -101 -44 13 70 127 -72 -15 42 99 -100 -43 14 71 -128 -71 -14 43 100 -99 -42 15 72 -127 -70 -13 44 101 -98 -41 16 73 -126 -69 -12 45 102 -97 -40 17 74 -125 -68 -11 46 103 -96 -39 18 75 -124 -67 -10 47 104 -95 -38 19 76 -123 -66 -9 48 105 -94 -37 20 77 -122 -65 -8 49 106 -93 -36 21 78 -121 
0 58 116 -82 -24 34 92 -106 -48 10 68 126 -72 -14 44 102 -96 -38 20 78 -120 -62 -4 54 112 -86 -28 30 88 -110 -52 6 64 122 -76 -18 40 98 -100 -42 16 74 -124 -66 -8 50 108 -90 -32 26 84 -114 -56 2 60 118 -80 -22 36 94 -104 -46 12 70 -128 -70 -12 46 104 -94 -36 22 80 -118 -60 -2 56 114 -84 -26 32 90 -108 -50 8 66 124 -74 -16 42 100 -98 -40 18 76 -122 -64 -6 52 110 -88 -30 28 86 -112 -54 4 62 120 -78 -20 38 96 -102 -44 14 72 -126 -68 -10 48 106 -92 -34 24 82 -116 -58 0 58 116 -82 -24 34 92 -106 -48 10 68 126 -72 -14 44 102 -96 -38 20 78 -120 -62 -4 54 112 -86 -28 30 88 -110 -52 6 64 122 -76 -18 40 98 -100 -42 16 74 -124 -66 -8 50 108 -90 -32 26 84 -114 -56 2 60 118 -80 -22 36 94 -104 -46 12 70 
0 59 118 -79 -20 39 98 -99 -40 19 78 -119 -60 -1 58 117 -80 -21 38 97 -100 -41 18 77 -120 -61 -2 57 116 -81 -22 37 96 -101 -42 17 76 -121 -62 -3 56 115 -82 -23 36 95 -102 -43 16 75 -122 -63 -4 55 114 -83 -24 35 94 -103 -44 15 74 -123 -64 -5 54 113 -84 -25 34 93 -104 -45 14 73 -124 -65 -6 53 112 -85 -26 33 92 -105 -46 13 72 -125 -66 -7 52 111 -86 -27 32 91 -106 -47 12 71 -126 -67 -8 51 110 -87 -28 31 90 -107 -48 11 70 -127 -68 -9 50 109 -88 -29 30 89 -108 -49 10 69 -128 -69 -10 49 108 -89 -30 29 88 -109 -50 9 68 127 -70 -11 48 107 -90 -31 28 87 -110 -51 8 67 126 -71 -12 47 106 -91 -32 27 86 -111 -52 7 66 125 -72 -13 46 105 -92 -33 26 85 -112 -53 6 65 124 -73 -14 45 104 -93 -34 25 84 -113 -54 5 
0 60 120 -76 -16 44 104 -92 -32 28 88 -108 -48 12 72 -124 -64 -4 56 116 -80 -20 40 100 -96 -36 24 84 -112 -52 8 68 -128 -68 -8 52 112 -84 -24 36 96 -100 -40 20 80 -116 -56 4 64 124 -72 -12 48 108 -88 -28 32 92 -104 -44 16 76 -120 -60 0 60 120 -76 -16 44 104 -92 -32 28 88 -108 -48 12 72 -124 -64 -4 56 116 -80 -20 40 100 -96 -36 24 84 -112 -52 8 68 -128 -68 -8 52 112 -84 -24 36 96 -100 -40 20 80 -116 -56 4 64 124 -72 -12 48 108 -88 -28 32 92 -104 -44 16 76 -120 -60 0 60 120 -76 -16 44 104 -92 -32 28 88 -108 -48 12 72 -124 -64 -4 56 116 -80 -20 40 100 -96 -36 24 84 -112 -52 8 68 -128 -68 -8 52 112 -84 -24 36 96 -100 -40 20 80 -116 -56 4 64 124 -72 -12 48 108 -88 -28 32 92 -104 -44 16 76 -120 -60 
0 61 122 -73 -12 49 110 -85 -24 37 98 -97 -36 25 86 -109 -48 13 74 -121 -60 1 62 123 -72 -11 50 111 -84 -23 38 99 -96 -35 26 87 -108 -47 14 75 -120 -59 2 63 124 -71 -10 51 112 -83 -22 39 100 -95 -34 27 88 -107 -46 15 76 -119 -58 3 64 125 -70 -9 52 113 -82 -21 40 101 -94 -33 28 89 -106 -45 16 77 -118 -57 4 65 126 -69 -8 53 114 -81 -20 41 102 -93 -32 29 90 -105 -44 17 78 -117 -56 5 66 127 -68 -7 54 115 -80 -19 42 103 -92 -31 30 91 -104 -43 18 79 -116 -55 6 67 -128 -67 -6 55 116 -79 -18 43 104 -91 -30 31 92 -103 -42 19 80 -115 -54 7 68 -127 -66 -5 56 117 -78 -17 44 105 -90 -29 32 93 -102 -41 20 81 -114 -53 8 69 -126 -65 -4 57 118 -77 -16 45 106 -89 -28 33 94 -101 -40 21 82 -113 -52 9 70 -125 
0 62 124 -70 -8 54 116 -78 -16 46 108 -86 -24 38 100 -94 -32 30 92 -102 -40 22 84 -110 -48 14 76 -118 -56 6 68 -126 -64 -2 60 122 -72 -10 52 114 -80 -18 44 106 -88 -26 36 98 -96 -34 28 90 -104 -42 20 82 -112 -50 12 74 -120 -58 4 66 -128 -66 -4 58 120 -74 -12 50 112 -82 -20 42 104 -90 -28 34 96 -98 -36 26 88 -106 -44 18 80 -114 -52 10 72 -122 -60 2 64 126 -68 -6 56 118 -76 -14 48 110 -84 -22 40 102 -92 -30 32 94 -100 -38 24 86 -108 -46 16 78 -116 -54 8 70 -124 -62 0 62 124 -70 -8 54 116 -78 -16 46 108 -86 -24 38 100 -94 -32 30 92 -102 -40 22 84 -110 -48 14 76 -118 -56 6 68 -126 -64 -2 60 122 -72 -10 52 114 -80 -18 44 106 -88 -26 36 98 -96 -34 28 90 -104 -42 20 82 -112 -50 12 74 -120 -58 4 66 
